<svg width="49" height="48" viewBox="0 0 49 48" fill="none" xmlns="http://www.w3.org/2000/svg">
<path d="M8.66797 42H27.908C29.0621 42.0006 30.2027 41.7512 31.2513 41.2689C32.2998 40.7866 33.2314 40.0828 33.982 39.206L44.186 27.302C44.3996 27.0532 44.5488 26.7556 44.6204 26.4355C44.692 26.1155 44.6837 25.7827 44.5964 25.4665C44.5091 25.1504 44.3453 24.8606 44.1196 24.6226C43.8939 24.3847 43.6131 24.2059 43.302 24.102L39.366 22.79C38.4147 22.4808 37.4018 22.4108 36.417 22.5863C35.4323 22.7618 34.5059 23.1773 33.72 23.796L27.35 28.89L26.116 26.42C25.4549 25.0886 24.4342 23.9689 23.1694 23.1877C21.9047 22.4065 20.4465 21.9951 18.96 22H8.66797C6.46197 22 4.66797 23.794 4.66797 26V38C4.66797 40.206 6.46197 42 8.66797 42ZM8.66797 26H18.96C20.486 26 21.856 26.846 22.538 28.21L23.432 30H14.668V34H26.696C27.0037 33.996 27.3063 33.9206 27.58 33.78L27.586 33.778L27.594 33.774H27.6L27.604 33.772H27.612L27.614 33.77C27.632 33.776 27.62 33.768 27.62 33.768C27.64 33.768 27.624 33.766 27.624 33.766H27.626L27.63 33.764L27.636 33.762L27.644 33.758L27.65 33.756L27.654 33.754C27.66 33.754 27.658 33.752 27.658 33.752L27.664 33.748L27.672 33.744L27.678 33.742L27.682 33.74H27.684L27.688 33.738L27.694 33.736L27.698 33.734C27.716 33.732 27.704 33.732 27.704 33.732L27.708 33.73C27.785 33.6835 27.8586 33.6314 27.928 33.574L36.22 26.94C36.744 26.524 37.466 26.394 38.1 26.606L39.214 26.978L30.948 36.624C30.5677 37.0558 30.1001 37.4017 29.5759 37.639C29.0518 37.8762 28.4833 37.9993 27.908 38H8.66797V26ZM32.634 4.00002C32.308 4.00402 30.622 4.07802 28.668 5.41002C26.766 4.11402 25.12 4.01002 24.732 4.00202L24.672 4.00002H24.664C23.062 4.00002 21.554 4.62602 20.426 5.75602C19.294 6.89002 18.668 8.39602 18.668 10C18.668 11.604 19.294 13.11 20.39 14.208L27.218 21.38C27.4058 21.575 27.6311 21.7301 27.8804 21.836C28.1296 21.9419 28.3976 21.9963 28.6684 21.9962C28.9392 21.996 29.2071 21.9411 29.4562 21.8349C29.7053 21.7287 29.9304 21.5733 30.118 21.378L36.91 14.242C38.044 13.11 38.668 11.604 38.668 10C38.668 8.39602 38.042 6.89002 36.912 5.75802C36.3566 5.19911 35.6959 4.75594 34.9681 4.45417C34.2403 4.1524 33.4599 3.99804 32.672 4.00002H32.634ZM34.668 10C34.668 10.534 34.46 11.036 34.046 11.45L28.668 17.1L23.254 11.414C22.876 11.036 22.668 10.534 22.668 10C22.668 9.46602 22.876 8.96402 23.256 8.58402C23.6176 8.21613 24.1101 8.0062 24.626 8.00002C24.676 8.00202 25.63 8.06402 26.76 8.97002C26.922 9.10002 27.086 9.24802 27.254 9.41402L28.668 10.828L30.082 9.41402C30.25 9.24802 30.414 9.10002 30.576 8.97002C31.634 8.12002 32.528 8.01402 32.68 8.00202C32.9406 8.00197 33.1987 8.05355 33.4394 8.15379C33.68 8.25402 33.8984 8.40093 34.082 8.58602C34.46 8.96402 34.668 9.46602 34.668 10Z" fill="#323232"/>
</svg>
