<svg width="49" height="48" viewBox="0 0 49 48" fill="none" xmlns="http://www.w3.org/2000/svg">
<path d="M42.4594 15.106L38.4594 7.106C38.2931 6.77368 38.0376 6.49421 37.7214 6.29888C37.4053 6.10354 37.041 6.00006 36.6694 6H26.6694C25.9114 6 25.2194 6.428 24.8794 7.106L21.4334 14H12.6694C11.9114 14 11.2194 14.428 10.8794 15.106L6.8794 23.106C6.74036 23.3839 6.66797 23.6903 6.66797 24.001C6.66797 24.3117 6.74036 24.6181 6.8794 24.896L10.8794 32.896C11.2194 33.572 11.9114 34 12.6694 34H21.4334L24.8814 40.894C25.047 41.2265 25.3021 41.5061 25.618 41.7015C25.9339 41.8969 26.298 42.0003 26.6694 42H36.6694C37.4274 42 38.1194 41.572 38.4594 40.894L42.4594 32.894C42.5984 32.6161 42.6708 32.3097 42.6708 31.999C42.6708 31.6883 42.5984 31.3819 42.4594 31.104L38.9054 24L42.4574 16.894C42.5964 16.6166 42.669 16.3106 42.6693 16.0002C42.6697 15.6899 42.5978 15.3838 42.4594 15.106ZM27.9054 10H35.4334L38.4334 16L35.4334 22H27.9054L24.9054 16L27.9054 10ZM10.9054 24L13.9054 18H21.4334L24.4334 24L21.4334 30H13.9054L10.9054 24ZM35.4334 38H27.9054L24.9054 32L27.9054 26H35.4334L38.4334 32L35.4334 38Z" fill="#323232"/>
</svg>
