<svg width="48" height="48" viewBox="0 0 48 48" fill="none" xmlns="http://www.w3.org/2000/svg">
<path d="M41.68 14.8L44.5 12L36 3.5L33.2 6.32L36 9.16L33.2 12L28.94 7.74L26.12 4.9L23.3 7.74L24.7 9.16L6 27.84C5.36625 28.4719 4.96271 29.2981 4.85394 30.1864C4.74516 31.0747 4.93744 31.9739 5.4 32.74L8 37.12L3.5 41.68L6.32 44.5L10.88 40L15.26 42.62C15.8657 42.9795 16.5557 43.1727 17.26 43.18C17.7979 43.1884 18.332 43.0883 18.8302 42.8855C19.3285 42.6828 19.7808 42.3816 20.16 42L38.84 23.32L40.26 24.72L43.1 21.9L36 14.8L38.84 12L41.68 14.8ZM36 20.46L17.32 39.16L12 36L8.84 30.68L10.56 28.94L16.22 34.6L19.06 31.78L13.4 26.12L16.22 23.3L21.88 28.94L24.7 26.12L19.04 20.46L21.88 17.64L27.54 23.3L30.36 20.46L24.7 14.8L27.54 12L36 20.46Z" fill="#323232"/>
</svg>
