<svg width="49" height="48" viewBox="0 0 49 48" fill="none" xmlns="http://www.w3.org/2000/svg">
<path d="M32.668 4H16.668C10.05 4 4.66797 9.382 4.66797 16V42C4.66797 42.5304 4.87868 43.0391 5.25376 43.4142C5.62883 43.7893 6.13754 44 6.66797 44H32.668C39.286 44 44.668 38.618 44.668 32V16C44.668 9.382 39.286 4 32.668 4ZM40.668 32C40.668 36.412 37.08 40 32.668 40H8.66797V16C8.66797 11.588 12.256 8 16.668 8H32.668C37.08 8 40.668 11.588 40.668 16V32Z" fill="#323232"/>
<path d="M22.668 27.1719L18.082 22.5859L15.254 25.4139L22.668 32.8279L35.082 20.4139L32.254 17.5859L22.668 27.1719Z" fill="#323232"/>
</svg>
