<svg version="1.2" xmlns="http://www.w3.org/2000/svg" viewBox="0 0 1586 448" width="1586" height="448">
	<title>HORION_01-xcf-svg</title>
	<style>
		.s0 { fill: none;stroke: #ffdacd;stroke-width: 2 } 
		.s1 { fill: none;stroke: #f0c8c6;stroke-width: 2 } 
		.s2 { fill: none;stroke: #e3b6b6;stroke-width: 2 } 
		.s3 { fill: none;stroke: #ffefe1;stroke-width: 2 } 
		.s4 { fill: none;stroke: #c2a5ac;stroke-width: 2 } 
		.s5 { fill: none;stroke: #a55b62;stroke-width: 2 } 
		.s6 { fill: none;stroke: #e39084;stroke-width: 2 } 
		.s7 { fill: none;stroke: #c2948e;stroke-width: 2 } 
		.s8 { fill: none;stroke: #724153;stroke-width: 2 } 
		.s9 { fill: none;stroke: #c27f7a;stroke-width: 2 } 
		.s10 { fill: none;stroke: #f0a294;stroke-width: 2 } 
		.s11 { fill: none;stroke: #af9ca6;stroke-width: 2 } 
		.s12 { fill: none;stroke: #af7674;stroke-width: 2 } 
		.s13 { fill: none;stroke: #e3a598;stroke-width: 2 } 
		.s14 { fill: none;stroke: #f0b7a8;stroke-width: 2 } 
		.s15 { fill: none;stroke: #ffc9af;stroke-width: 2 } 
		.s16 { fill: none;stroke: #af8b88;stroke-width: 2 } 
		.s17 { fill: none;stroke: #d37e7c;stroke-width: 2 } 
		.s18 { fill: #c66c6c } 
		.s19 { fill: #844a58 } 
		.s20 { fill: #ffdec3 } 
		.s21 { fill: #5f384d } 
		.s22 { fill: #e0908c } 
		.s23 { fill: #ffffff } 
		.s24 { fill: #ffb49b } 
	</style>
	<g id="Layer">
		<path id="Layer" fill-rule="evenodd" class="s0" d="m433.6 108.5q-6.9 5.5-9.5 8.9-2.4 3.2-5.1 6.3-18.3 20.6-28 45.8-0.3 0.7-0.6 1.4c-21.7 56.4-11 119.9 22 169.6q15 22.6 37.6 40.1 37.4 29 84.5 33.9c12.8 1.4 27.6 1.1 40.8-0.6q14.2-1.7 27.9-6.1 20.3-6.4 38.5-17.2 5.5-3.2 11.6-7.9 6.1-4.6 10.9-8.8 16.3-13.9 28.1-33.5 13.7-22.9 14.6-48.9c0.3-8.2-2.5-17.5-5.1-25.4-1.3-4.1-5.9-8-9.1-10.7-0.7-0.7-1.7-0.6-2.5-1.3q-4.9-4.7-11.9-6.8c-7.1-2.1-13.6-3-21-0.6-9 2.9-14 10.8-15.5 19.9"/>
		<path id="Layer" fill-rule="evenodd" class="s1" d="m641.8 266.6q-1.9 11.7 4.3 20.3c4.2 5.9 11.5 9.7 18.7 8.6q8.3-1.3 13.6-9.6"/>
		<path id="Layer" fill-rule="evenodd" class="s0" d="m678.4 285.9q3.5-7.7 0.1-14.9-2.8-6.1-9.3-5.7-3.6 0.2-4.7 4.2-0.6 2.3 0.3 4.2 0.2 0.4 0.6 0.3 0.6-0.2 0.6-0.9-0.3-2.4 1.3-3.6 1.9-1.4 3.2 0.3 3 3.6 1.4 9 0 0.1-0.1 0.2-0.1 0.1-0.2 0.2 0 0.1-0.2 0.1-0.1 0.1-0.2 0.1-1.4 0-2.1 0.7-2.1 1.8-4.5 3.4c-3.4 2.2-8.4-2.2-10.7-4.6-1.6-1.7-3-5.6-2.9-8 0.2-3-0.6-6.1 0.4-9.1 3-9.5 8.8-12.1 17.6-14.1 7.4-1.6 14.9 3.9 19.2 9.1 10.5 12.4 11.4 30.4 7.4 45.9-5.3 20.6-20.7 38.1-39.2 48.1q-14.9 8.1-34.9 12-0.8 0.1-0.7-0.7c1.5-8.6 1.6-17 0.1-26.2q-1.5-9.1-3.6-20.3-1.6-8.5-3-22.5-0.1-0.7-0.5-7.8-0.2-3.8-1-7.8"/>
		<path id="Layer" fill-rule="evenodd" class="s2" d="m612.8 277.5l0.1-30.2"/>
		<path id="Layer" fill-rule="evenodd" class="s0" d="m612.9 247.3q1.7-6.5 0.8-13.5-1.1-7.6-5.6-17.2-4.3-9.4-9.3-18.7"/>
		<path id="Layer" fill-rule="evenodd" class="s3" d="m598.8 197.9q4.6-1.4 6.2-4.9 1.4-3.1 1.9-9 0.3-2.4-0.9-4.9-1.5-3.4-3.1-6.2-3.8-6.6-11.2-8.4"/>
		<path id="Layer" fill-rule="evenodd" class="s2" d="m591.7 164.5q-1.6-10.9-8.2-16.3-6.7-5.6-19.3-9.3"/>
		<path id="Layer" fill-rule="evenodd" class="s3" d="m564.2 138.9q-0.5-1-3.5-1.7c-1.7-0.4-4.8-2.8-6.2-4.4q-4.8-5.3-10.1-10.4c-3-2.9-4.1-6-3.6-10.1q1-6.8 3-11.6c1.2-2.7 3.8-4.8 6.9-3.1q4.8 2.7 9.3 3.3c4.9 0.6 5.5-4.1 5.5-7.8q0-0.2 0-0.3 0.1-0.1 0.1-0.2 0.1-0.1 0.2-0.1 0.1 0 0.2-0.1 1.6 0 2.2-1.3 2.1-4 2.1-7 0-0.3 0.1-0.5 0.1-0.2 0.3-0.3 0.2-0.2 0.4-0.2 0.2-0.1 0.4-0.1 2.9 0.2 4.1-2.3 0.1-0.1 0.1-0.2 0-0.1 0-0.3 0-0.1 0-0.2-0.1-0.1-0.1-0.2-2.4-3.5-4.2-7.1c-0.7-1.4-0.6-3.9-0.1-5.3q1.7-5.2 2-9.9"/>
		<path id="Layer" fill-rule="evenodd" class="s4" d="m573.3 57.5q8.3-6.1 3.7-19.3"/>
		<path id="Layer" fill-rule="evenodd" class="s2" d="m577 38.2q-3.8-6.2-9.7-7.5-3.6-0.8-7.3-1.8c-7-1.8-12.4-7-19.6-8-17.3-2.4-29.6 9.7-38.2 23.7q-3.4 5.5-7.2 11.2-12.2 18.3-34.3 18.1c-10.1-0.1-18.7 3.7-23.7 12.6q-1.1 2-2.1 3.9-0.3 0.7-1.1 0.7c-5.1-0.3-10.4 0-14.6 3-3.2 2.3-5 6.9-3.3 10.6q2.8 6.1 10.2 5 0.1 0 0.1-0.2v-0.3q0-0.4-0.4-0.4-6.7-0.2-7.9-6.4c-1.5-7.2 9.5-7.5 14.1-7q1.2 0.1 1.1 1.3-1 6.2 0.5 11.8"/>
		<path id="Layer" fill-rule="evenodd" class="s5" d="m577 38.2q-1 0.7-1.8 0c-1.4-1.3-3.2-2.3-5-2.6-3-0.6-5.6-1.8-8.7-2.2q-5.5-0.7-11.2-0.1c-3.2 0.4-5.8 1.9-8.7 3q-3.2 1.2-6.1 3.4-8.2 6.4-14.8 13.2-9.4 9.5-19.3 14.6-5.4 2.7-13.2 5.2c-10.2 3.3-19.5 5-29.1 7.5"/>
		<path id="Layer" fill-rule="evenodd" class="s2" d="m459.1 80.2q-13.3 0.5-21 10.3-0.2 0.2-0.2 0.4 0 0.3 0.1 0.5 0.1 0.3 0.3 0.4 0.2 0.2 0.4 0.2l7.4 0.8"/>
		<path id="Layer" fill-rule="evenodd" class="s5" d="m446.1 92.8l-0.2 2"/>
		<path id="Layer" fill-rule="evenodd" class="s6" d="m445.9 94.8q-2.8 0.1-3.4 0.6"/>
		<path id="Layer" fill-rule="evenodd" class="s2" d="m442.5 95.4l-6.1 0.1q-0.1 0-0.2 0-0.1 0.1-0.2 0.1 0 0.1-0.1 0.1-0.1 0.1-0.1 0.2-1.3 4-0.7 8.7"/>
		<path id="Layer" fill-rule="evenodd" class="s6" d="m435.1 104.6l1.5 6.9q0 0.3-0.2 0.1l-2.8-3.1"/>
		<path id="Layer" fill-rule="evenodd" class="s7" d="m573.3 57.5q-0.5-5.6-1.1-7.5-1.9-5.9-7.9-7.4-0.5-0.1-0.6 0.4-0.7 2.3-1.4 4.7-2.4 7.9-8.5 13.8"/>
		<path id="Layer" fill-rule="evenodd" class="s8" d="m553.8 61.5q-0.5-2.2-3.3-1.5-3.7 1-7.3 2.3-1.7 0.7-3.1 1.8c-2.4 1.9-5 3.2-7.3 5.3-2 2-4.2 3-5.9 5.3q-4 5-9.1 8.8-2 1.6-5.6 3.3-2.9 1.4-5.8 2.9c-2.1 1.1-4.1 0.9-6.3 1.8q-2.3 0.8-4.7 1.4-6.9 1.7-13.3 5.6c-8.2 4.9-13.3 14.1-15.1 23.3-0.6 3.3-1.2 6.9-1.2 10.4-0.1 2.6-1.1 4.9-1.1 7.6 0.1 3.4-1.8 5.1-4.2 7.4q-2.5 2.4-4.7 4.9-1.3 1.5-1 3.8"/>
		<path id="Layer" fill-rule="evenodd" class="s4" d="m454.8 155.9q-9.9 1.3-13.3 10.6-2.6 7.1-4.3 14.2"/>
		<path id="Layer" fill-rule="evenodd" class="s9" d="m437.2 180.7q0.2 0.9 0.1 0.9-0.2 0-0.4 0-0.2-0.1-0.4-0.3-0.1-0.1-0.2-0.3-0.1-0.2-0.1-0.4 0.3-3 0.4-6.1c0.4-7 3.4-13.7 8.5-18.4 2.2-2.1 5-3.6 7.6-5.4q0.8-0.6-0.2-0.6-10.2 0.3-17.1 2.5-6.4 2.1-8.4 8-1.1 3.6 0 7.3 1.3 3.8 4.1 6.8 0.7 0.8-0.1 0.3c-4.7-2.6-9.2-6.2-10.8-11.4-2.3-7.2-3.1-19.5 5.9-22.4 3-1 6.4-0.5 9.3-1.6 6.1-2.2 8-11 7.5-16.7q-0.3-3.8 0.1-7.1 1.2-11 3.6-20.5 0.1-0.5-0.3-0.6-0.2 0-0.4 0.1"/>
		<path id="Layer" fill-rule="evenodd" class="s4" d="m446.1 92.8l1-0.3q0.5-0.1 0.8-0.5 4.5-6.7 11.2-11.8"/>
		<path id="Layer" fill-rule="evenodd" class="s0" d="m437.2 180.7q0.8 0.9 1.3 0.6"/>
		<path id="Layer" fill-rule="evenodd" class="s0" d="m436.4 190.6q-0.2 0-0.4 0.2-0.1 0.1-0.1 0.3c0.1 5.6 0.3 11.2-0.2 16.8q-2.5 27.7 6.2 54.8 4.7 14.7 13.6 26.3 11.3 14.7 28.4 19.8"/>
		<path id="Layer" fill-rule="evenodd" class="s10" d="m483.9 308.8l13.3 3.8q2.3 0.7 2.8-1.6 2.7-13.4 9-25.4c2.1-4 4-8.2 6.7-11.7q9.7-13.1 16.2-19.5 29.8-29.4 46.9-47.9 5.1-5.5 12.1-15.6"/>
		<path id="Layer" fill-rule="evenodd" class="s6" d="m612.9 247.3q-7.1 18-17.4 32.8"/>
		<path id="Layer" fill-rule="evenodd" class="s10" d="m595.5 280.1q-1.6-0.6-3 1.1-22.8 29.3-56.8 40.2-13 4.2-28 5-10.4 0.6-19-0.9-18.2-3.2-30.5-17.3-1.3-1.5-2.7-3-1.6-1.6-0.7 0.5c2.7 5.8 9.3 14.6 16.1 17q0.3 0.1 0.5 0.4 0.8 1.5 2.2 2.3 16.5 9.7 36.3 10.3"/>
		<path id="Layer" fill-rule="evenodd" class="s6" d="m509.9 335.8q-6.3 1.1-12.4 0.5c-3.7-0.4-7.7 0.2-11.3-0.8q-1.6-0.4-3.5-0.4c-3 0-5.6-1.2-8.6-1.7q-1.8-0.4-3.6-1.1-10.7-3.8-19.3-10.6c-1.2-0.9-2.8-1.4-3.8-2.2q-5.9-4.6-11-9.4-0.4-0.4-0.6-0.9c-0.5-1.7-2-1.8-2.7-3.1q-0.3-0.6-0.7-1.1-3.8-4.2-6.9-8.6 0-0.1-0.1-0.1-0.1-0.1-0.2-0.2-0.1 0-0.2 0-0.1-0.1-0.2-0.1l-1.8-0.1q-1 0-0.9 1c2.8 16.8 9.9 33 22.6 44 5.5 4.7 10.4 10 16.3 14.1q28.4 19.7 63.5 9.7 21.7-6.2 39.9-23.2 21.9-20.5 33.2-45.8 1.8-4 3.6-8.3c3.2-7.5 5.6-15.6 8-23.2q0.5-1.8 0.8 0 0.4 3-0.2 6.2-0.5 2.3-0.7 4.8-0.1 2.5-0.4 5.1-1.7 17-4.2 30.8-3.2 18.5-12.5 33.6-6 9.7-15.6 15.7-2.7 1.7 0.4 2.2 15.8 2.7 30.9 2.1 2.6-0.1 5.2-0.8 1.6-0.4 1.7-2 0.4-7.6 0.4-15.5 0-2.2 0.4-4.3c0.5-3.4-0.4-6.7-0.4-10.1q0-4.3-0.1-8.3c-0.2-7.1-1.2-14.1-2-21.2q-0.4-3-0.2-13.3 0.1-1-0.5-5.4-0.3-3.1 0.6-6.3"/>
		<path id="Layer" fill-rule="evenodd" class="s10" d="m678.4 285.9l-1-1.9q-0.2-0.3-0.5-0.5-0.3-0.2-0.6-0.2-0.4 0-0.7 0.1-0.3 0.2-0.6 0.5-2.1 2.8-5.5 3.3-0.2 0-0.4 0.1-0.1 0-0.3 0.1-0.2 0.1-0.3 0.2-0.2 0.1-0.3 0.3c-0.6 0.6-0.8 0.9-1.7 1.1-3.5 0.6-7.1 2.4-10.5 0.1-8.6-6-11.8-16-10.2-26.5q0-0.3-0.2-0.3h-0.6q-0.1 0-0.2 0.2-0.5 3-3 4.1"/>
		<path id="Layer" fill-rule="evenodd" class="s0" d="m435.1 104.6l7.4-9.2"/>
		<path id="Layer" fill-rule="evenodd" class="s8" d="m535.3 74.5q-1.9 3.2-1.9 6.7"/>
		<path id="Layer" fill-rule="evenodd" class="s11" d="m501 173.4c-10 7-21.1 9.3-32.8 12.1-3.8 0.9-7.5 2.6-6.2 7.3 0.6 1.7 2.3 2.5 3.9 3.2 8 3.4 19.9 2.6 24.6-6q0.1-0.2 0.3-0.1 0.1 0 0.1 0.1-2 6.7-9.1 10.4c-8.1 4.2-18.8 3.3-27.6 0.6-7.2-2.3-11.3-9.1-6.3-16q3.8-5.3 9.1-9.7c3.6-3.1 6.9-6.4 9.9-10.2q0.2-0.3 0-0.6l-0.2-0.1q-0.2-0.3-0.4-0.1-5.5 4.5-11.4 7.3c-6.9 3.2-12.9 6.8-15 14.4-2.9 10.1 6.3 18 14.1 22.1q0 0 0 0 0 0 0 0 0 0-0.1 0 0 0 0 0-13.6-4.4-17.5-17.5"/>
		<path id="Layer" fill-rule="evenodd" class="s12" d="m436.4 190.6q-0.2-1-0.1-1.6 1.2-3.8 2.2-7.7"/>
		<path id="Layer" fill-rule="evenodd" class="s11" d="m438.5 181.3q6.9-13.3 17.6-24.3 0.8-0.8-0.3-1.1-0.1-0.1-1 0"/>
		<path id="Layer" fill-rule="evenodd" class="s13" d="m564.2 138.9q9.3 4.5 12.5 11.3 0.1 0.1 0.1 0.2-0.1 0.2-0.1 0.2-0.1 0.1-0.2 0.2-0.2 0-0.3 0l-9.9-3.7"/>
		<path id="Layer" fill-rule="evenodd" class="s14" d="m566.3 147.1q-3.9-1.4-8.1-2.8-5.3-1.8-8-3.3-5.9-3.4-10.3-8.8-4.6-5.7-9.5-11.6-1.9-2.3-4.4-4.1-0.4-0.3-0.5 0.2-0.2 0.3 0.1 0.6 9.7 10.6 17.4 24.1 0.8 1.3 1.7 3.9"/>
		<path id="Layer" fill-rule="evenodd" class="s15" d="m544.7 145.3q-5.7-2.5-9.3-7.7-0.1-0.1-0.2-0.1-0.2-0.1-0.3 0-0.1 0-0.2 0.1-0.1 0.1-0.1 0.2l-2 28.3"/>
		<path id="Layer" fill-rule="evenodd" class="s13" d="m532.6 166.1q-0.5 0.4-0.5 1.8-0.5 11.7-1 24.2 0 0.1 0 0.2 0.1 0.1 0.2 0.2 0.1 0 0.2 0 0.2 0 0.3-0.1c2.1-1.9 4.3-3.4 7.1-4.3 12.1-3.8 24.9-10.5 35.5-18.8q4-3.1 7.9-4.1 4.5-1.2 9.4-0.7"/>
		<path id="Layer" fill-rule="evenodd" class="s15" d="m598.8 197.9q-3.2-4.2-7.9-7"/>
		<path id="Layer" fill-rule="evenodd" class="s14" d="m590.9 190.9l-8.2-5.7q-0.2-0.2-0.5-0.2-0.2-0.1-0.5 0-0.2 0-0.4 0.1-0.3 0.1-0.4 0.3-22.6 26.3-54.7 39.1"/>
		<path id="Layer" fill-rule="evenodd" class="s3" d="m526.2 224.5q-8.5 0.7-12.3-6.7-2.7-5-3.5-8.4-4.6-18-9.4-36"/>
		<path id="Layer" fill-rule="evenodd" class="s16" d="m501 173.4q-4.4-15.4-5.5-21.4-1.2-6.8-1.5-12.8-0.5-10.4 5.9-19.7 2.8-4 8.1-8.3 8.3-6.9 14.8-13.4 6.7-6.7 10.6-16.6"/>
		<path id="Layer" fill-rule="evenodd" class="s7" d="m533.4 81.2q2.1 2.8 3.9 1.5 0.3-0.2 0.5-0.5 0.2-0.3 0.4-0.6 0.1-0.3 0.1-0.7 0.1-0.4 0-0.7-0.6-3.4-3-5.7"/>
		<path id="Layer" fill-rule="evenodd" class="s16" d="m535.3 74.5l0.5-3q0.1-1.2 1.3-1.4 10.1-1.9 16.7-8.6"/>
		<path id="Layer" fill-rule="evenodd" class="s17" d="m509.9 335.8q0.8 0.5 1.7-0.4 0.1-0.1 0-0.3 0-0.2-0.2-0.2-0.9-0.3 0.1-0.5 12.7-2.1 21.7-4.7 22.7-6.5 41.5-22.6 7.5-6.5 14.5-13.8 0.2-0.1 0.4-0.4 0.1-0.2 0.2-0.4 0.2-0.2 0.2-0.5 0.1-0.2 0.2-0.5 0.8-5.1 4.6-9 0.9-0.9 0.7-2.4"/>
		<path id="Layer" fill-rule="evenodd" class="s1" d="m526.2 224.5c-1.9 8-3.8 13.5-8.2 18.7q-8.1 9.3-13.2 16.4-16.1 22.2-20.9 49.2"/>
		<path id="Layer" fill-rule="evenodd" class="s6" d="m538.7 161.9l-6.1 4.2"/>
		<path id="Layer" fill-rule="evenodd" class="s17" d="m566.3 147.1q1.8 5.8 5.2 10.4 0.3 0.4 0.3 0.9l-0.5 3q0 0.2-0.1 0.4-0.2 0.1-0.3 0.2-0.2 0.1-0.4 0-0.2 0-0.3-0.1-6.1-5-11.5-7.7-5.4-2.6-1.4 1.9 2.1 2.4 4.3 5.3c1.4 1.9 1.9 4.7-1.1 5.1q-5.5 0.8-9.9-0.3-0.8-0.3-5.9-2.4-2.8-1.2-6-1.9"/>
		<path id="Layer" fill-rule="evenodd" class="s10" d="m538.7 161.9q7-7.8 6-16.7"/>
		<path id="Layer" fill-rule="evenodd" class="s1" d="m1005.8 103.2c0-4.8-0.9-9.5-2.7-13.9-1.8-4.4-4.5-8.4-7.9-11.8-3.3-3.3-7.3-6-11.7-7.8-4.4-1.8-9.1-2.8-13.9-2.8-4.7 0-9.4 1-13.8 2.8-4.4 1.8-8.4 4.5-11.8 7.8-3.3 3.4-6 7.4-7.8 11.8-1.9 4.4-2.8 9.1-2.8 13.9 0 4.7 0.9 9.4 2.8 13.8 1.8 4.4 4.5 8.4 7.8 11.8 3.4 3.3 7.4 6 11.8 7.8 4.4 1.8 9.1 2.8 13.8 2.8 4.8 0 9.5-1 13.9-2.8 4.4-1.8 8.4-4.5 11.7-7.8 3.4-3.4 6.1-7.4 7.9-11.8 1.8-4.4 2.7-9.1 2.7-13.8z"/>
		<path id="Layer" fill-rule="evenodd" class="s1" d="m244 277.3v131q0 0.1 0.1 0.2 0 0.2 0.1 0.3 0.1 0.1 0.3 0.1 0.1 0.1 0.3 0.1h67q0.1 0 0.1 0 0.1-0.1 0.2-0.1 0.1-0.1 0.1-0.2 0.1-0.1 0.1-0.2v-317q0 0-0.1-0.1 0 0 0-0.1-0.1 0-0.1 0 0 0-0.1-0.1h-67.5q-0.5 0-0.5 0.5-0.1 56.5 0.1 118 0 4.3-0.3 8.3-0.1 0.4-0.6 0.4l-135.9 0.1q-0.2 0-0.3-0.1-0.2 0-0.3-0.1-0.1-0.1-0.1-0.3-0.1-0.1-0.1-0.2v-125.9q0-0.7-0.6-0.7h-66.9q-0.8 0-0.8 0.8v316.5q0 0.1 0.1 0.2 0 0.1 0.1 0.2 0.1 0 0.1 0.1 0.1 0 0.2 0h67.2q0.1 0 0.2 0 0.2-0.1 0.3-0.2 0.1-0.1 0.1-0.2 0-0.1 0.1-0.3l-0.1-131.5q0-0.1 0.1-0.1 0-0.1 0-0.1 0 0 0.1-0.1 0 0 0.1 0h136.5q0.7 0 0.7 0.8z"/>
		<path id="Layer" fill-rule="evenodd" class="s1" d="m1253.2 379.9c20-18.9 31.9-45.2 33.6-72.9q0.7-10.2-0.1-20-3.6-45.1-36.1-74.3c-10.7-9.7-23.6-17.5-36.7-22q-37.3-12.7-76.1-4.1-36.1 8-61.3 36.8-22.2 25.4-26.2 59.6-1.9 16.4 0.5 33.3 4.4 30.6 23.8 54.1c19.9 24 48.3 38.2 79.3 40.9q16.4 1.4 30.9-0.2 40-4.3 68.4-31.2z"/>
		<path id="Layer" fill-rule="evenodd" class="s1" d="m815.3 243.1l1.3-52q0-0.2 0-0.3-0.1-0.1-0.2-0.1 0-0.1-0.1-0.2-0.1 0-0.3 0h-60q-0.7 0-0.7 0.7v211.7q0 0.1 0 0.3 0.1 0.1 0.2 0.2 0 0.1 0.2 0.1 0.1 0 0.2 0.1h60.8q0.8 0 0.8-0.9 0-49.1 0.1-97.9 0.1-18.1 5.9-32.4 7.8-19.4 29.7-23.6 9.3-1.8 16.1-1.8 14 0.1 28.9 5.7 0.2 0.1 0.4 0 0.2 0 0.4-0.1 0.1-0.1 0.3-0.2 0.1-0.2 0.1-0.4l9.1-64.9q0-0.2 0-0.3-0.1-0.2-0.2-0.3 0-0.1-0.2-0.2-0.1-0.1-0.2-0.1-10.9-2.3-21.8-2.8-14.9-0.6-30.2 6.2c-21.1 9.3-33.4 32.6-40.2 53.5q-0.4 1.4-0.4 0z"/>
		<path id="Layer" fill-rule="evenodd" class="s1" d="m1395 222.9q-0.1 0-0.1 0-0.1 0-0.2-0.1-0.1 0-0.1-0.1-0.1-0.1-0.1-0.1v-31.8q0-0.1 0-0.1 0-0.1 0-0.1-0.1-0.1-0.1-0.1-0.1 0-0.1 0h-60q-0.5 0-0.5 0.5l-0.1 211.8q0 0.1 0.1 0.3 0.1 0.1 0.2 0.2 0.1 0.1 0.2 0.2 0.2 0 0.3 0h60.8q0.5 0.1 0.5-0.4-0.1-53.1 0-106.3c0-6.7 0.4-13.7 1.5-20.1q1.6-10 7.9-20.2 7.6-12.3 21.7-18.2 15.8-6.7 32.5-3.3c18.3 3.7 24.3 17.1 26.7 34 1.5 10.5 1.9 21.8 1.9 32.8q0 50.7 0 101.2 0 0.5 0.5 0.5h61.2q0.3 0 0.3-0.3 0-71.4-0.1-142 0-13.1-2.6-25.9-4.3-21.5-20.1-34.8-10.3-8.7-22.1-12.4-22.2-7-46.4-3.8-22.6 2.9-41 16.7-12.4 9.3-22.5 21.7-0.1 0.1-0.2 0.2z"/>
		<path id="Layer" fill-rule="evenodd" class="s1" d="m1000.5 190.8q0-0.1 0-0.1 0-0.1-0.1-0.1 0-0.1 0-0.1-0.1 0-0.2 0h-61.2q0 0-0.1 0 0 0-0.1 0.1 0 0 0 0.1 0 0 0 0.1v212.4q0 0.1 0 0.2 0 0 0 0 0.1 0.1 0.1 0.1 0.1 0 0.1 0h61.2q0.1 0 0.2 0 0 0 0-0.1 0.1 0 0.1 0 0-0.1 0-0.2z"/>
		<path id="Layer" fill-rule="evenodd" class="s14" d="m563.1 62.7l6.1 2.1q0 0 0 0 0 0 0.1 0 0 0 0 0 0 0 0 0v-0.1q0.1-0.3 0-0.6-0.2-0.3-0.5-0.7-0.3-0.3-0.8-0.6-0.5-0.3-1.1-0.5l-0.4-0.1q-0.5-0.2-1.1-0.3-0.6-0.1-1.1 0-0.4 0-0.8 0.2-0.3 0.2-0.4 0.4v0.1q0 0 0 0 0 0 0 0.1 0 0 0 0 0 0 0 0z"/>
		<path id="Layer" fill-rule="evenodd" class="s7" d="m561.1 70.3l-0.1 1q0 0.1 0 0.1 0 0.1 0.1 0.1 0 0 0 0.1 0.1 0 0.1 0l2.8 0.3q0.7 0.1 1.4 0.1 0.7 0 1.2 0 0.5 0 0.8-0.1 0.3-0.1 0.3-0.2v-0.2q0.1-0.1-0.2-0.3-0.3-0.1-0.8-0.3-0.5-0.1-1.1-0.3-0.7-0.1-1.4-0.2l-2.8-0.3q0 0-0.1 0 0 0-0.1 0.1 0 0 0 0-0.1 0.1-0.1 0.1z"/>
		<path id="Layer" fill-rule="evenodd" class="s0" d="m443.1 271.5q0-0.1-0.1-0.2-0.1-0.1-0.2-0.1-0.2 0-0.3 0-0.1 0-0.2 0v0.1q-0.1 0-0.2 0.1-0.1 0.1-0.1 0.2-0.1 0.2 0 0.3 0 0.1 0 0.2l7.6 13.1q0.1 0.1 0.2 0.2 0.1 0.1 0.2 0.1 0.1 0 0.3 0 0.1 0 0.2 0v-0.1q0.1 0 0.2-0.1 0.1-0.1 0.1-0.2 0-0.2 0-0.3 0-0.1-0.1-0.2z"/>
		<path id="Layer" fill-rule="evenodd" class="s1" d="m1130.2 253c-8.8 7.8-15 19.6-16.6 31.5-4.5 31.1 7.2 61.4 40.4 68.6 3.9 0.8 7.8 1 11.7 1.4 1.6 0.2 2.9-0.2 4.5-0.2 28 0 49.8-18.9 53.3-46.7q1.2-10 0-20.5c-2.3-19.5-13.8-35.9-32.3-42.7q-21.3-7.9-43.3-1-10.6 3.3-17.7 9.6z"/>
	</g>
	<path id="Layer" class="s18" d="m577 38.2q-1 0.7-1.8 0c-1.4-1.3-3.2-2.3-5-2.6-3-0.6-5.6-1.8-8.7-2.2q-5.5-0.7-11.2-0.1c-3.2 0.4-5.8 1.9-8.7 3q-3.2 1.2-6.1 3.4-8.2 6.4-14.8 13.2-9.4 9.5-19.3 14.6-5.4 2.7-13.2 5.2c-10.2 3.3-19.5 5-29.1 7.5q-13.3 0.5-21 10.3-0.2 0.2-0.2 0.4 0 0.3 0.1 0.5 0.1 0.3 0.3 0.4 0.2 0.2 0.4 0.2l7.4 0.8-0.2 2q-2.8 0.1-3.4 0.6l-6.1 0.1q-0.1 0-0.2 0-0.1 0.1-0.2 0.1 0 0.1-0.1 0.1-0.1 0.1-0.1 0.2-1.3 4-0.7 8.7l1.5 6.9q0 0.3-0.2 0.1l-2.8-3.1q-1.5-5.6-0.5-11.8 0.1-1.2-1.1-1.3c-4.6-0.5-15.6-0.2-14.1 7q1.2 6.2 7.8 6.4 0.5 0 0.5 0.4v0.3q0 0.2-0.1 0.2-7.4 1.1-10.2-5c-1.7-3.7 0.1-8.3 3.3-10.6 4.2-3 9.5-3.3 14.6-3q0.8 0 1.1-0.7 1-1.9 2.1-3.9c5-8.9 13.6-12.7 23.7-12.6q22.1 0.2 34.3-18.1 3.8-5.7 7.2-11.2c8.6-14 20.9-26.1 38.2-23.7 7.2 1 12.6 6.2 19.6 8q3.7 1 7.3 1.8 5.9 1.3 9.7 7.5z"/>
	<path id="Layer" class="s19" d="m577 38.2q4.6 13.2-3.7 19.3-0.5-5.6-1.1-7.5-1.9-5.9-7.9-7.4-0.5-0.1-0.6 0.4-0.7 2.3-1.4 4.7-2.4 7.9-8.5 13.8-0.5-2.2-3.3-1.5-3.7 1-7.3 2.3-1.7 0.7-3.1 1.8c-2.4 1.9-5 3.2-7.3 5.3-2 2-4.2 3-5.9 5.3q-4 5-9.1 8.8-2 1.6-5.6 3.3-2.9 1.4-5.8 2.9c-2.2 1.1-4.1 0.9-6.3 1.8q-2.3 0.8-4.7 1.4-6.9 1.7-13.3 5.6c-8.2 4.9-13.3 14.1-15.1 23.3-0.6 3.3-1.2 6.9-1.2 10.4-0.1 2.6-1.1 4.9-1.1 7.6 0.1 3.4-1.8 5.1-4.2 7.4q-2.5 2.4-4.7 4.9-1.3 1.5-1 3.8-9.9 1.3-13.3 10.6-2.6 7.1-4.3 14.2 0.2 0.9 0.1 0.9-0.2 0-0.4 0-0.2-0.1-0.4-0.3-0.1-0.1-0.2-0.3-0.1-0.2-0.1-0.4 0.3-3 0.4-6.1c0.4-7 3.4-13.7 8.5-18.4 2.2-2.1 5-3.6 7.6-5.4q0.8-0.6-0.2-0.6-10.2 0.3-17.1 2.5-6.4 2.1-8.4 8-1.1 3.6 0 7.3 1.3 3.8 4.1 6.8 0.7 0.8-0.1 0.3c-4.7-2.6-9.2-6.2-10.8-11.4-2.3-7.2-3.1-19.5 5.9-22.4 3-1 6.4-0.5 9.3-1.6 6.1-2.2 8-11 7.5-16.7q-0.3-3.8 0.1-7.1 1.2-11.1 3.6-20.5 0.1-0.5-0.3-0.6-0.2 0-0.4 0.1l0.2-2 1-0.3q0.5-0.1 0.8-0.5 4.5-6.7 11.2-11.8c9.6-2.5 18.9-4.2 29.1-7.5q7.8-2.5 13.2-5.2 9.9-5.1 19.3-14.6 6.6-6.8 14.8-13.2 2.9-2.2 6.1-3.4c2.9-1.1 5.5-2.6 8.7-3q5.7-0.6 11.2 0.1c3.1 0.4 5.7 1.6 8.7 2.2 1.8 0.3 3.6 1.3 5 2.5q0.8 0.8 1.8 0.1z"/>
	<path id="Layer" fill-rule="evenodd" class="s20" d="m573.3 57.5q-0.3 4.7-2 9.9c-0.4 1.4-0.6 3.9 0.1 5.3q1.8 3.6 4.2 7.1 0 0.1 0.1 0.2 0 0.1 0 0.2 0 0.2 0 0.3 0 0.1-0.1 0.2-1.2 2.5-4.1 2.3-0.2 0-0.4 0.1-0.2 0-0.4 0.2-0.2 0.1-0.3 0.3-0.1 0.2-0.1 0.5 0 3-2.1 7-0.6 1.3-2.2 1.3-0.1 0.1-0.2 0.1-0.1 0-0.2 0.1 0 0.1-0.1 0.2 0 0.1 0 0.2c0 3.8-0.6 8.5-5.5 7.9q-4.5-0.6-9.3-3.3c-3-1.7-5.7 0.4-6.9 3.1q-2 4.8-2.9 11.6c-0.6 4.1 0.6 7.2 3.5 10.1q5.3 5.1 10.1 10.4c1.4 1.6 4.5 4 6.2 4.4q3 0.7 3.5 1.7 9.3 4.5 12.5 11.3 0.1 0.1 0.1 0.2-0.1 0.2-0.1 0.2-0.1 0.1-0.2 0.2-0.2 0-0.3 0l-9.9-3.7q-3.9-1.4-8.1-2.8-5.3-1.8-8-3.3-5.9-3.4-10.3-8.8-4.6-5.7-9.5-11.6-1.9-2.3-4.4-4.1-0.4-0.3-0.5 0.2-0.2 0.3 0.1 0.6 9.7 10.6 17.5 24.1 0.7 1.3 1.6 3.8-5.7-2.4-9.3-7.6-0.1-0.1-0.2-0.1-0.2-0.1-0.3 0-0.1 0-0.2 0.1-0.1 0.1-0.1 0.2l-2 28.3q-0.5 0.4-0.5 1.8-0.5 11.7-1 24.2 0 0.1 0 0.2 0.1 0.1 0.2 0.2 0.1 0 0.2 0 0.2 0 0.3-0.1c2.1-1.9 4.4-3.4 7.1-4.3 12.1-3.8 24.9-10.5 35.5-18.8q4-3.1 7.9-4.1 4.5-1.2 9.4-0.7 7.4 1.8 11.2 8.4 1.6 2.8 3.1 6.2 1.2 2.5 0.9 4.9-0.5 5.9-1.9 9-1.6 3.5-6.2 4.9-3.2-4.2-7.9-7l-8.2-5.7q-0.2-0.2-0.5-0.2-0.2-0.1-0.5 0-0.2 0-0.4 0.1-0.3 0.1-0.4 0.3-22.6 26.3-54.7 39.1-8.5 0.7-12.3-6.7-2.7-5-3.5-8.4-4.6-18-9.4-36-4.4-15.4-5.5-21.4-1.2-6.8-1.5-12.8-0.5-10.4 5.9-19.7 2.8-4 8.1-8.3 8.3-6.9 14.8-13.4 6.7-6.7 10.6-16.6 2.1 2.8 3.9 1.5 0.3-0.2 0.5-0.5 0.2-0.3 0.4-0.6 0.1-0.3 0.1-0.7 0.1-0.4 0-0.7-0.6-3.4-3-5.7l0.5-3q0.1-1.2 1.3-1.4 10.1-1.9 16.7-8.6 6.1-5.9 8.5-13.8 0.7-2.4 1.4-4.7 0.1-0.5 0.6-0.4 6 1.5 7.9 7.4 0.6 1.9 1.1 7.5zm-10.2 5.2l6.1 2.1q0 0 0 0 0 0 0.1 0 0 0 0 0 0 0 0 0v-0.1q0.1-0.3 0-0.6-0.2-0.3-0.5-0.7-0.3-0.3-0.8-0.6-0.5-0.3-1.1-0.5l-0.3-0.1q-0.6-0.2-1.2-0.3-0.6-0.1-1.1 0-0.4 0-0.8 0.2-0.3 0.2-0.4 0.4v0.1q0 0 0 0 0 0 0 0.1 0 0 0 0 0 0 0 0zm-2 7.6l-0.1 1q0 0.1 0 0.1 0 0.1 0.1 0.1 0 0 0 0.1 0.1 0 0.1 0l2.8 0.3q0.7 0.1 1.4 0.1 0.7 0 1.2 0 0.5 0 0.8-0.1 0.3-0.1 0.3-0.2l0.1-0.2q0-0.1-0.3-0.3-0.3-0.1-0.8-0.3-0.5-0.1-1.1-0.3-0.7-0.1-1.4-0.2l-2.8-0.3q0 0-0.1 0 0 0-0.1 0.1 0 0 0 0-0.1 0.1-0.1 0.1z"/>
	<path id="Layer" class="s21" d="m553.8 61.5q-6.6 6.7-16.7 8.6-1.2 0.2-1.3 1.4l-0.5 3q-1.9 3.2-1.9 6.7-3.9 9.9-10.6 16.6-6.5 6.5-14.8 13.4-5.3 4.3-8.1 8.3-6.4 9.3-5.9 19.7 0.3 6 1.5 12.8 1.1 6 5.5 21.4c-10 7-21.1 9.3-32.8 12.1-3.8 0.9-7.5 2.6-6.2 7.3 0.6 1.7 2.3 2.5 3.9 3.2 8 3.4 19.9 2.6 24.6-6q0.1-0.2 0.3-0.1 0.1 0 0.1 0.1-2 6.7-9.1 10.4c-8.1 4.2-18.8 3.3-27.6 0.6-7.2-2.3-11.3-9.1-6.3-16q3.8-5.3 9.1-9.7c3.6-3.1 6.9-6.4 9.9-10.2q0.2-0.3 0-0.6l-0.2-0.1q-0.2-0.3-0.4-0.1-5.5 4.5-11.4 7.3c-6.9 3.2-12.9 6.8-15 14.4-2.9 10.1 6.3 18 14.1 22.1q0 0 0 0 0 0 0 0 0 0-0.1 0 0 0 0 0-13.6-4.4-17.5-17.5-0.2-1-0.1-1.6 1.2-3.8 2.2-7.7 6.9-13.3 17.6-24.3 0.8-0.8-0.3-1.1-0.1-0.1-1 0-0.3-2.3 1-3.8 2.2-2.5 4.7-4.9c2.4-2.3 4.3-4 4.2-7.4 0-2.7 1-5 1.1-7.6 0-3.5 0.6-7.1 1.2-10.4 1.8-9.2 6.9-18.4 15.1-23.3q6.4-3.9 13.3-5.6 2.4-0.6 4.7-1.4c2.2-0.9 4.2-0.7 6.3-1.8q2.9-1.5 5.8-2.9 3.6-1.7 5.6-3.3 5.1-3.8 9.1-8.8c1.7-2.3 3.9-3.3 5.9-5.3 2.3-2.1 4.9-3.4 7.3-5.3q1.4-1.1 3.1-1.8 3.6-1.3 7.3-2.3 2.8-0.7 3.3 1.5z"/>
	<path id="Layer" class="s22" d="m563.1 62.7q0 0 0 0 0 0 0 0 0-0.1 0-0.1 0 0 0 0v-0.1q0.1-0.2 0.4-0.4 0.4-0.2 0.8-0.2 0.5-0.1 1.1 0 0.6 0.1 1.2 0.3l0.3 0.1q0.6 0.2 1.1 0.5 0.5 0.3 0.8 0.6 0.3 0.4 0.5 0.7 0.1 0.3 0 0.6v0.1q0 0 0 0 0 0 0 0-0.1 0-0.1 0 0 0 0 0z"/>
	<path id="Layer" class="s22" d="m969.6 139.4c-20 0-36.2-16.2-36.2-36.2 0-20.1 16.2-36.3 36.2-36.3 20.1 0 36.3 16.2 36.3 36.3 0 20-16.2 36.2-36.3 36.2z"/>
	<path id="Layer" class="s19" d="m561.1 70.3q0 0 0.1-0.1 0 0 0 0 0.1-0.1 0.1-0.1 0.1 0 0.1 0l2.8 0.3q0.7 0.1 1.4 0.2 0.6 0.2 1.1 0.3 0.5 0.2 0.8 0.3 0.3 0.2 0.2 0.3v0.2q0 0.1-0.3 0.2-0.3 0.1-0.8 0.1-0.5 0-1.2 0-0.7 0-1.4-0.1l-2.8-0.3q0 0-0.1 0 0-0.1 0-0.1-0.1 0-0.1-0.1 0 0 0-0.1z"/>
	<path id="Layer" class="s19" d="m535.3 74.5q2.4 2.3 3 5.7 0.1 0.3 0 0.7 0 0.4-0.1 0.7-0.2 0.3-0.4 0.6-0.2 0.3-0.5 0.5-1.8 1.3-3.9-1.5 0-3.5 1.9-6.7z"/>
	<path id="Layer" class="s23" d="m459.1 80.2q-6.7 5.1-11.3 11.8-0.2 0.4-0.7 0.5l-1 0.3-7.4-0.8q-0.2 0-0.4-0.2-0.2-0.1-0.3-0.4-0.1-0.2-0.1-0.5 0-0.2 0.2-0.4 7.7-9.8 21-10.3z"/>
	<path id="Layer" class="s22" d="m243.3 276.5h-136.5q-0.1 0-0.1 0-0.1 0.1-0.1 0.1 0 0 0 0.1-0.1 0-0.1 0.1l0.1 131.6q-0.1 0.1-0.1 0.2 0 0.1-0.1 0.2-0.1 0.1-0.3 0.2-0.1 0-0.2 0h-67.2q-0.1 0-0.2 0 0-0.1-0.1-0.1-0.1-0.1-0.1-0.2-0.1-0.1-0.1-0.2v-316.5q0-0.8 0.8-0.8h66.9q0.6 0 0.6 0.7v125.9q0 0.1 0.1 0.2 0 0.2 0.1 0.3 0.1 0.1 0.3 0.1 0.1 0.1 0.3 0.1l135.9-0.1q0.5 0 0.5-0.4 0.4-4 0.4-8.3-0.2-61.5-0.1-118 0-0.4 0.5-0.4h67.5q0.1 0 0.1 0 0 0 0.1 0 0 0.1 0 0.1 0.1 0.1 0.1 0.1v317q0 0.1-0.1 0.2 0 0.1-0.1 0.2-0.1 0-0.2 0.1 0 0-0.2 0h-66.9q-0.2 0-0.3-0.1-0.2 0-0.3-0.1-0.1-0.1-0.1-0.3-0.1-0.1-0.1-0.2v-131q0-0.8-0.7-0.8z"/>
	<path id="Layer" fill-rule="evenodd" class="s24" d="m445.9 94.8q0.2-0.1 0.4-0.1 0.4 0.1 0.3 0.6-2.4 9.5-3.6 20.5-0.4 3.3-0.1 7.1c0.5 5.7-1.4 14.5-7.5 16.7-2.9 1.1-6.3 0.6-9.3 1.6-9 2.9-8.2 15.2-5.9 22.4 1.6 5.2 6.1 8.8 10.8 11.4q0.8 0.5 0.1-0.3-2.8-3-4.1-6.8-1.1-3.7 0-7.3 2-5.9 8.4-8 6.9-2.2 17.1-2.5 1 0 0.2 0.6c-2.6 1.8-5.4 3.3-7.6 5.4-5.1 4.7-8.1 11.4-8.5 18.4q-0.1 3.1-0.4 6.1 0 0.2 0.1 0.4 0.1 0.2 0.2 0.3 0.2 0.2 0.4 0.3 0.2 0 0.4 0 0.1 0-0.1-0.9 0.8 0.9 1.3 0.6-1 3.9-2.2 7.7-0.1 0.6 0.1 1.6-0.2 0-0.4 0.2-0.1 0.1-0.1 0.3c0.1 5.6 0.2 11.2-0.2 16.8q-2.5 27.7 6.2 54.8 4.7 14.7 13.6 26.3 11.3 14.7 28.4 19.8l13.3 3.8q2.3 0.7 2.8-1.6 2.7-13.4 9-25.4c2.1-4 4-8.2 6.7-11.7q9.7-13.1 16.2-19.5 29.8-29.4 46.9-47.9 5.1-5.5 12.1-15.6 4.7 2.8 7.9 7 5 9.4 9.3 18.7 4.5 9.6 5.6 17.2 0.9 7-0.8 13.5-7.1 18-17.4 32.8-1.6-0.6-3 1.2-22.8 29.2-56.7 40.1-13.1 4.2-28.1 5-10.4 0.6-19-0.9-18.2-3.2-30.5-17.3-1.3-1.5-2.7-3-1.6-1.6-0.7 0.5c2.7 5.8 9.3 14.6 16.1 17q0.3 0.1 0.5 0.4 0.8 1.5 2.2 2.3 16.5 9.7 36.3 10.4-6.3 1.1-12.4 0.5c-3.7-0.4-7.7 0.2-11.3-0.8q-1.6-0.4-3.5-0.4c-3 0-5.6-1.2-8.6-1.7q-1.8-0.4-3.6-1.1-10.7-3.8-19.3-10.6c-1.2-0.9-2.8-1.4-3.8-2.1q-5.9-4.7-11-9.5-0.4-0.4-0.6-0.9c-0.5-1.7-2-1.8-2.7-3.1q-0.3-0.6-0.7-1.1-3.8-4.2-6.9-8.6 0-0.1-0.1-0.1-0.1-0.1-0.2-0.2-0.1 0-0.2 0-0.1-0.1-0.2-0.1l-1.8-0.1q-1 0-0.9 1c2.8 16.8 9.9 33 22.6 44 5.5 4.7 10.4 10 16.3 14.1q28.4 19.7 63.5 9.7 21.7-6.2 39.9-23.2 21.9-20.5 33.2-45.8 1.8-4 3.6-8.3c3.2-7.5 5.6-15.6 8-23.2q0.5-1.8 0.8 0 0.4 3-0.2 6.2-0.5 2.3-0.6 4.8-0.2 2.5-0.5 5.1-1.7 17-4.2 30.8-3.2 18.5-12.5 33.6-6 9.7-15.6 15.7-2.7 1.7 0.4 2.2 15.8 2.7 30.9 2.1 2.6-0.1 5.2-0.8 1.6-0.4 1.7-2 0.4-7.6 0.4-15.5 0-2.2 0.4-4.3c0.5-3.4-0.4-6.7-0.4-10.1q0-4.3-0.1-8.3c-0.2-7.1-1.2-14.1-2-21.2q-0.4-3-0.2-13.3 0.1-1-0.5-5.4-0.3-3.1 0.6-6.3 0.8 4 1 7.8 0.4 7.1 0.5 7.8 1.4 14 3 22.5 2.1 11.2 3.6 20.3c1.5 9.2 1.4 17.6-0.1 26.2q-0.1 0.8 0.7 0.7 20-3.9 34.9-12c18.5-10 33.9-27.5 39.2-48.1 4-15.6 3.1-33.5-7.4-45.9-4.3-5.2-11.8-10.7-19.2-9.1-8.8 2-14.6 4.6-17.6 14.1-1 3-0.2 6.1-0.4 9.1-0.1 2.4 1.3 6.3 2.9 8 2.3 2.4 7.3 6.8 10.7 4.6q2.4-1.6 4.5-3.4 0.7-0.7 2.1-0.7 0.1 0 0.2-0.1 0.2 0 0.2-0.1 0.1-0.1 0.2-0.2 0.1-0.1 0.1-0.2 1.6-5.4-1.4-9-1.3-1.7-3.2-0.4-1.6 1.2-1.3 3.7 0 0.7-0.6 0.9-0.4 0.1-0.6-0.3-0.9-1.9-0.3-4.2 1.1-4 4.7-4.2 6.5-0.4 9.3 5.7 3.4 7.2-0.1 14.9l-1-1.9q-0.2-0.3-0.5-0.5-0.3-0.2-0.6-0.2-0.4 0-0.7 0.1-0.3 0.2-0.6 0.5-2.1 2.7-5.5 3.3-0.2 0-0.4 0.1-0.1 0-0.3 0.1-0.2 0.1-0.3 0.2-0.2 0.1-0.3 0.3c-0.6 0.5-0.8 0.9-1.7 1.1-3.5 0.6-7.1 2.4-10.5 0.1-8.6-6-11.8-16-10.2-26.5q0-0.3-0.2-0.3h-0.6q-0.1 0-0.2 0.2-0.5 3-3 4.1c1.5-9.1 6.5-17 15.5-19.9 7.4-2.4 13.9-1.5 21 0.6q7 2.1 11.9 6.8c0.8 0.7 1.8 0.6 2.5 1.3 3.2 2.7 7.8 6.6 9.1 10.7 2.6 7.9 5.4 17.2 5.1 25.4q-0.9 26-14.6 48.9-11.8 19.6-28.1 33.5-4.8 4.2-10.9 8.8-6.1 4.7-11.6 7.9-18.2 10.8-38.5 17.2-13.7 4.4-27.9 6.1c-13.2 1.7-28 2-40.8 0.6q-47.1-4.9-84.5-33.9-22.6-17.5-37.6-40.1c-33-49.7-43.7-113.2-22-169.6q0.3-0.7 0.6-1.4 9.7-25.2 28-45.8 2.7-3.1 5.2-6.3 2.5-3.4 9.4-8.9l2.8 3.1q0.2 0.2 0.2-0.1l-1.5-6.9 7.4-9.2q0.6-0.5 3.4-0.6zm-2.8 176.7q0-0.1-0.1-0.2-0.1-0.1-0.2-0.1-0.2 0-0.3 0-0.1 0-0.2 0v0.1q-0.1 0-0.2 0.1-0.1 0.1-0.1 0.2-0.1 0.2 0 0.3 0 0.1 0 0.2l7.6 13.1q0.1 0.1 0.2 0.2 0.1 0.1 0.2 0.1 0.1 0 0.3 0 0.1 0 0.2 0v-0.1q0.1 0 0.2-0.1 0.1-0.1 0.1-0.2 0-0.2 0-0.3 0-0.1-0.1-0.2z"/>
	<path id="Layer" class="s23" d="m442.5 95.4l-7.4 9.2q-0.6-4.7 0.7-8.7 0-0.1 0.1-0.2 0.1 0 0.1-0.1 0.1 0 0.2-0.1 0.1 0 0.2 0z"/>
	<path id="Layer" class="s22" d="m566.3 147.1q1.8 5.8 5.2 10.4 0.3 0.4 0.3 0.9l-0.5 3q0 0.2-0.1 0.4-0.2 0.1-0.3 0.2-0.2 0.1-0.4 0-0.2 0-0.3-0.1-6.1-5-11.5-7.7-5.4-2.6-1.4 1.9 2.1 2.4 4.3 5.3c1.4 1.9 1.9 4.7-1.1 5.1q-5.5 0.8-9.9-0.3-0.8-0.3-5.9-2.4-2.8-1.2-6-1.9 7-7.8 6-16.6-0.9-2.6-1.6-3.9-7.8-13.5-17.5-24.1-0.3-0.3-0.1-0.6 0.1-0.5 0.5-0.2 2.5 1.8 4.4 4.1 4.9 5.9 9.5 11.6 4.4 5.4 10.3 8.8 2.7 1.5 8 3.3 4.2 1.4 8.1 2.8z"/>
	<path id="Layer" class="s24" d="m544.7 145.3q1 8.8-6 16.6l-6.1 4.2 2-28.3q0-0.1 0.1-0.2 0.1-0.1 0.2-0.1 0.1-0.1 0.3 0 0.1 0 0.2 0.1 3.6 5.2 9.3 7.6z"/>
	<path id="Layer" class="s18" d="m564.2 138.9q12.6 3.7 19.3 9.3 6.6 5.4 8.2 16.3-4.9-0.5-9.4 0.7-3.9 1-7.9 4.1c-10.6 8.3-23.4 15-35.5 18.8-2.8 0.9-5 2.4-7.1 4.3q-0.1 0.1-0.3 0.1-0.1 0-0.2 0-0.1-0.1-0.2-0.2 0-0.1 0-0.2 0.5-12.5 1-24.2 0-1.4 0.5-1.8l6.1-4.2q3.1 0.7 6 1.9 5.1 2.1 5.8 2.4 4.5 1.1 10 0.3c3-0.4 2.5-3.2 1.1-5.1q-2.2-2.9-4.3-5.3-4-4.5 1.4-1.9 5.4 2.7 11.5 7.7 0.1 0.1 0.3 0.1 0.2 0.1 0.4 0 0.1-0.1 0.3-0.2 0.1-0.2 0.1-0.4l0.4-3q0.1-0.5-0.2-0.9-3.4-4.6-5.2-10.4l9.9 3.6q0.1 0.1 0.3 0.1 0.1-0.1 0.2-0.2 0 0 0.1-0.2 0-0.1-0.1-0.2-3.2-6.8-12.5-11.3z"/>
	<path id="Layer" class="s23" d="m454.8 155.9q0.9-0.1 1 0 1.1 0.3 0.3 1.1-10.7 11-17.6 24.3-0.5 0.3-1.3-0.6 1.7-7.1 4.3-14.2 3.4-9.3 13.3-10.6z"/>
	<path id="Layer" fill-rule="evenodd" class="s22" d="m1286.8 307c-1.7 27.7-13.6 53.9-33.6 72.9q-28.4 26.9-68.4 31.2-14.5 1.6-30.9 0.2c-31-2.7-59.4-16.9-79.3-40.9q-19.4-23.5-23.8-54.2-2.4-16.8-0.5-33.3 4-34.1 26.2-59.5 25.2-28.8 61.3-36.8 38.8-8.6 76.1 4.1c13.1 4.4 26 12.3 36.7 22q32.5 29.2 36.1 74.3 0.8 9.8 0.1 20zm-156.6-54c-8.8 7.8-14.9 19.6-16.6 31.5-4.5 31.1 7.2 61.4 40.4 68.6 3.9 0.8 7.8 1 11.7 1.4 1.6 0.2 2.9-0.2 4.6-0.2 27.9 0 49.7-18.9 53.2-46.7q1.2-10 0-20.5c-2.3-19.5-13.8-35.9-32.2-42.7q-21.4-7.9-43.4-1-10.6 3.3-17.7 9.6z"/>
	<path id="Layer" class="s22" d="m815.7 243.1c6.8-21 19.1-44.2 40.2-53.5q15.3-6.8 30.2-6.2 10.9 0.5 21.8 2.8 0.1 0 0.2 0.1 0.2 0.1 0.2 0.2 0.1 0.1 0.2 0.3 0 0.1 0 0.3l-9.1 64.9q0 0.2-0.1 0.4-0.2 0.1-0.3 0.2-0.2 0.1-0.4 0.1-0.2 0.1-0.4 0-14.9-5.6-28.9-5.7-6.8 0-16.1 1.8-21.9 4.2-29.7 23.6-5.8 14.3-5.9 32.4-0.1 48.8-0.1 97.9 0 0.9-0.8 0.9h-60.8q-0.1-0.1-0.2-0.1-0.2 0-0.2-0.1-0.1-0.1-0.2-0.2 0-0.2 0-0.3v-211.7q0-0.7 0.7-0.7h60q0.2 0 0.3 0 0.1 0.1 0.1 0.2 0.1 0 0.2 0.1 0 0.1 0 0.2l-1.3 52q0 1.5 0.4 0.1z"/>
	<path id="Layer" class="s22" d="m1395 222.9q0.1-0.1 0.2-0.2 10.1-12.4 22.5-21.7 18.4-13.8 41-16.7 24.2-3.2 46.4 3.8 11.8 3.7 22.1 12.4 15.8 13.3 20.1 34.8 2.6 12.8 2.6 25.9 0.1 70.6 0.1 142 0 0.3-0.3 0.3h-61.2q-0.5 0-0.5-0.5 0-50.5 0-101.2c0-11-0.4-22.3-1.9-32.8-2.4-16.9-8.4-30.3-26.7-34q-16.7-3.4-32.5 3.3-14.1 5.9-21.7 18.3-6.3 10.1-8 20.1c-1 6.4-1.4 13.4-1.4 20.1q-0.1 53.2-0.1 106.3 0 0.5-0.4 0.5l-60.8-0.1q-0.1 0-0.3 0-0.1-0.1-0.2-0.2-0.1-0.1-0.2-0.2-0.1-0.2-0.1-0.3v-211.8q0-0.5 0.5-0.5h60.1q0 0 0.1 0 0 0 0.1 0.1 0 0 0 0.1 0 0 0 0.1v31.8q0 0 0.1 0.1 0 0.1 0.1 0.1 0.1 0.1 0.2 0.1 0 0 0.1 0z"/>
	<path id="Layer" class="s22" d="m590.9 190.9q-7 10.1-12.1 15.6-17.1 18.5-46.9 47.9-6.5 6.4-16.2 19.5c-2.7 3.5-4.6 7.7-6.7 11.7q-6.3 12-9 25.4-0.5 2.3-2.8 1.6l-13.3-3.8q4.8-27 20.9-49.2 5.1-7.1 13.2-16.4c4.4-5.2 6.3-10.7 8.2-18.7q32.1-12.8 54.7-39.1 0.1-0.2 0.4-0.3 0.2-0.1 0.4-0.1 0.3-0.1 0.5 0 0.3 0 0.5 0.2z"/>
	<path id="Layer" class="s22" d="m938.8 190.8c0-0.2 0.1-0.3 0.2-0.3h61.2c0.2 0 0.3 0.1 0.3 0.3v212.4c0 0.2-0.1 0.3-0.3 0.3h-61.2c-0.1 0-0.2-0.1-0.2-0.3z"/>
	<path id="Layer" class="s18" d="m612.9 247.3l-0.1 30.2q-0.9 3.2-0.6 6.3 0.6 4.4 0.5 5.4-0.2 10.3 0.2 13.3c0.8 7.1 1.8 14.1 2 21.2q0.1 4 0.1 8.3c0 3.4 0.9 6.7 0.4 10.1q-0.4 2.1-0.4 4.3 0 7.9-0.4 15.5-0.1 1.6-1.7 2-2.6 0.7-5.2 0.8-15.1 0.6-30.9-2.1-3.1-0.5-0.4-2.2 9.6-6 15.6-15.7 9.3-15.1 12.5-33.6 2.5-13.8 4.2-30.8 0.3-2.6 0.4-5.1 0.2-2.5 0.7-4.8 0.6-3.2 0.2-6.2-0.3-1.8-0.8 0c-2.4 7.6-4.8 15.7-8 23.2q-1.8 4.3-3.6 8.3-11.3 25.3-33.2 45.8-18.2 17-39.9 23.2-35.1 10-63.5-9.7c-5.9-4.1-10.8-9.4-16.3-14.1-12.7-11-19.8-27.2-22.6-44q-0.1-1 0.9-1l1.8 0.1q0.1 0 0.2 0.1 0.1 0 0.2 0 0.1 0.1 0.2 0.2 0.1 0 0.1 0.1 3.1 4.4 6.9 8.6 0.4 0.5 0.7 1.1c0.7 1.3 2.2 1.4 2.7 3.1q0.2 0.5 0.6 0.9 5.1 4.8 11 9.5c1 0.7 2.6 1.2 3.8 2.1q8.6 6.8 19.3 10.6 1.8 0.7 3.6 1.1c3 0.5 5.6 1.7 8.6 1.7q1.9 0 3.5 0.4c3.6 1 7.6 0.4 11.3 0.8q6.1 0.6 12.4-0.6 0.8 0.6 1.7-0.3 0.1-0.1 0-0.3 0-0.2-0.2-0.2-0.9-0.3 0.1-0.5 12.7-2.1 21.7-4.7 22.7-6.5 41.5-22.6 7.5-6.5 14.5-13.8 0.2-0.1 0.4-0.4 0.1-0.2 0.2-0.4 0.2-0.2 0.2-0.5 0.1-0.2 0.2-0.5 0.8-5.1 4.6-9 0.9-0.9 0.7-2.4 10.3-14.8 17.4-32.8z"/>
	<path id="Layer" class="s22" d="m678.4 285.9q-5.3 8.3-13.6 9.6c-7.2 1.1-14.5-2.7-18.7-8.6q-6.2-8.6-4.3-20.3 2.5-1.1 3-4.1 0.1-0.2 0.2-0.2h0.6q0.2 0 0.2 0.3c-1.6 10.5 1.6 20.5 10.2 26.5 3.4 2.3 7 0.5 10.5-0.1 0.9-0.2 1.1-0.5 1.7-1.1q0.1-0.2 0.3-0.3 0.1-0.1 0.3-0.2 0.2-0.1 0.3-0.1 0.2-0.1 0.4-0.1 3.4-0.5 5.5-3.3 0.3-0.3 0.6-0.5 0.3-0.1 0.7-0.1 0.3 0 0.6 0.2 0.3 0.2 0.5 0.5z"/>
	<path id="Layer" class="s23" d="m442 272.1c-0.1-0.3 0-0.7 0.3-0.8v-0.1c0.3-0.1 0.7 0 0.8 0.3l7.6 13.1c0.2 0.3 0.1 0.7-0.2 0.8v0.1c-0.3 0.1-0.7 0-0.9-0.3z"/>
	<path id="Layer" class="s22" d="m595.5 280.1q0.2 1.5-0.7 2.4-3.8 3.9-4.6 9-0.1 0.3-0.2 0.5 0 0.3-0.2 0.5-0.1 0.2-0.2 0.4-0.2 0.3-0.4 0.4-7 7.3-14.5 13.8-18.8 16.1-41.5 22.6-9 2.6-21.7 4.7-1 0.2-0.1 0.5 0.2 0 0.2 0.2 0.1 0.2 0 0.3-0.9 0.9-1.7 0.3-19.8-0.6-36.3-10.3-1.4-0.8-2.2-2.3-0.2-0.3-0.5-0.4c-6.8-2.4-13.4-11.2-16.1-17q-0.9-2.1 0.7-0.5 1.4 1.5 2.7 3 12.3 14.1 30.5 17.3 8.6 1.5 19 0.9 15-0.8 28-5 34-10.9 56.8-40.2 1.4-1.7 3-1.1z"/>
</svg>